<svg width="150" height="50" viewBox="0 0 150 50" fill="none" xmlns="http://www.w3.org/2000/svg">
<rect width="150" height="50" fill="white"/>
<path d="M90.032 33H92.72C95.324 33 97.124 31.596 97.124 28.488C97.124 25.38 95.324 24.072 92.6 24.072H90.032V33ZM92.18 31.272V25.776H92.468C93.908 25.776 94.928 26.364 94.928 28.488C94.928 30.612 93.908 31.272 92.468 31.272H92.18ZM90.032 43H91.952V39.94C91.952 39.052 91.784 37.72 91.676 36.844H91.724L92.444 38.98L93.656 42.244H94.832L96.032 38.98L96.776 36.844H96.824C96.716 37.72 96.548 39.052 96.548 39.94V43H98.504V34.072H96.176L94.808 37.924C94.64 38.44 94.496 39.004 94.316 39.556H94.256C94.088 39.004 93.944 38.44 93.764 37.924L92.348 34.072H90.032V43Z" fill="#FC7272"/>
<path d="M99.4702 33.112C99.9742 33.112 100.398 32.88 100.774 32.544H100.806L100.91 33H102.07V30.416C102.07 28.992 101.406 28.336 100.23 28.336C99.5182 28.336 98.8702 28.576 98.2702 28.936L98.7662 29.872C99.2222 29.616 99.5982 29.472 99.9582 29.472C100.422 29.472 100.614 29.688 100.646 30.056C98.8702 30.248 98.1182 30.768 98.1182 31.728C98.1182 32.488 98.6302 33.112 99.4702 33.112ZM99.9582 32.008C99.6622 32.008 99.4702 31.88 99.4702 31.616C99.4702 31.296 99.7582 31.04 100.646 30.92V31.648C100.438 31.872 100.246 32.008 99.9582 32.008ZM104.466 33.112C104.778 33.112 105.018 33.056 105.17 32.992L105.002 31.944C104.922 31.96 104.89 31.96 104.842 31.96C104.73 31.96 104.586 31.872 104.586 31.576V26.608H103.17V31.52C103.17 32.472 103.49 33.112 104.466 33.112ZM105.826 33H107.242V28.448H105.826V33ZM106.538 27.816C107.01 27.816 107.346 27.512 107.346 27.088C107.346 26.656 107.01 26.352 106.538 26.352C106.058 26.352 105.722 26.656 105.722 27.088C105.722 27.512 106.058 27.816 106.538 27.816ZM108.964 34.752C110.044 34.752 110.532 34.176 110.98 33.008L112.54 28.448H111.188L110.66 30.336C110.556 30.768 110.452 31.192 110.364 31.624H110.324C110.204 31.176 110.108 30.752 109.972 30.336L109.364 28.448H107.932L109.676 32.864L109.612 33.096C109.508 33.416 109.284 33.64 108.852 33.64C108.748 33.64 108.628 33.6 108.548 33.584L108.292 34.664C108.484 34.72 108.668 34.752 108.964 34.752ZM101.251 43.112C101.755 43.112 102.179 42.88 102.555 42.544H102.587L102.691 43H103.851V40.416C103.851 38.992 103.187 38.336 102.011 38.336C101.299 38.336 100.651 38.576 100.051 38.936L100.547 39.872C101.003 39.616 101.379 39.472 101.739 39.472C102.203 39.472 102.395 39.688 102.427 40.056C100.651 40.248 99.8994 40.768 99.8994 41.728C99.8994 42.488 100.411 43.112 101.251 43.112ZM101.739 42.008C101.443 42.008 101.251 41.88 101.251 41.616C101.251 41.296 101.539 41.04 102.427 40.92V41.648C102.219 41.872 102.027 42.008 101.739 42.008ZM104.951 43H106.367V39.96C106.647 39.696 106.839 39.552 107.159 39.552C107.519 39.552 107.687 39.736 107.687 40.36V43H109.111V40.184C109.111 39.048 108.687 38.336 107.695 38.336C107.079 38.336 106.615 38.648 106.239 39.016H106.207L106.111 38.448H104.951V43ZM111.369 43.112C111.873 43.112 112.297 42.88 112.673 42.544H112.705L112.809 43H113.969V40.416C113.969 38.992 113.305 38.336 112.129 38.336C111.417 38.336 110.769 38.576 110.169 38.936L110.665 39.872C111.121 39.616 111.497 39.472 111.857 39.472C112.321 39.472 112.513 39.688 112.545 40.056C110.769 40.248 110.017 40.768 110.017 41.728C110.017 42.488 110.529 43.112 111.369 43.112ZM111.857 42.008C111.561 42.008 111.369 41.88 111.369 41.616C111.369 41.296 111.657 41.04 112.545 40.92V41.648C112.337 41.872 112.145 42.008 111.857 42.008ZM116.7 44.912C118.284 44.912 119.276 44.232 119.276 43.272C119.276 42.448 118.644 42.104 117.524 42.104H116.804C116.316 42.104 116.132 42.008 116.132 41.8C116.132 41.648 116.172 41.576 116.276 41.48C116.476 41.536 116.66 41.56 116.812 41.56C117.82 41.56 118.628 41.096 118.628 40.032C118.628 39.816 118.572 39.608 118.5 39.48H119.204V38.448H117.532C117.324 38.376 117.076 38.336 116.812 38.336C115.828 38.336 114.908 38.88 114.908 39.992C114.908 40.52 115.204 40.944 115.524 41.168V41.2C115.228 41.408 115.02 41.728 115.02 42.048C115.02 42.432 115.196 42.672 115.436 42.832V42.872C115.012 43.088 114.788 43.392 114.788 43.768C114.788 44.584 115.652 44.912 116.7 44.912ZM116.812 40.704C116.484 40.704 116.236 40.464 116.236 39.992C116.236 39.528 116.484 39.288 116.812 39.288C117.148 39.288 117.388 39.528 117.388 39.992C117.388 40.464 117.148 40.704 116.812 40.704ZM116.924 44.024C116.34 44.024 115.956 43.864 115.956 43.544C115.956 43.392 116.028 43.264 116.172 43.136C116.316 43.176 116.492 43.192 116.82 43.192H117.252C117.676 43.192 117.916 43.248 117.916 43.52C117.916 43.808 117.508 44.024 116.924 44.024ZM121.874 43.112C122.41 43.112 123.034 42.928 123.506 42.592L123.034 41.736C122.706 41.928 122.402 42.024 122.074 42.024C121.498 42.024 121.066 41.768 120.938 41.144H123.61C123.642 41.04 123.674 40.784 123.674 40.536C123.674 39.288 123.034 38.336 121.722 38.336C120.618 38.336 119.562 39.248 119.562 40.728C119.562 42.232 120.57 43.112 121.874 43.112ZM120.914 40.216C121.01 39.672 121.354 39.424 121.746 39.424C122.266 39.424 122.466 39.76 122.466 40.216H120.914ZM124.584 43H126V40.4C126.24 39.8 126.648 39.584 126.984 39.584C127.184 39.584 127.32 39.616 127.48 39.656L127.72 38.432C127.592 38.376 127.44 38.336 127.168 38.336C126.712 38.336 126.208 38.632 125.872 39.24H125.84L125.744 38.448H124.584V43Z" fill="black"/>
<path d="M115 20.6L119.875 27L128 19" stroke="#FC7272" stroke-width="2" stroke-linecap="round" stroke-linejoin="round"/>
<path d="M25 17.14H35.728V12.496H19.204V35.644H22.228C29.716 35.644 33.928 35.536 38.212 34.708L37.708 29.92C34.036 30.64 30.616 30.82 25 30.856V17.14ZM39.688 9.616V43.564H45.52V9.616H39.688ZM62.7612 19.624C62.7612 17.356 63.7692 16.24 65.3172 16.24C66.8652 16.24 67.9092 17.356 67.9092 19.624C67.9092 21.928 66.8652 23.044 65.3172 23.044C63.7692 23.044 62.7612 21.928 62.7612 19.624ZM74.2092 21.928V28.732H79.6092V10.228H74.2092V17.284H72.8052C71.9052 13.828 69.0612 11.524 65.3172 11.524C60.8172 11.524 57.5772 14.872 57.5772 19.624C57.5772 24.412 60.8172 27.76 65.3172 27.76C69.0612 27.76 71.9412 25.42 72.8052 21.928H74.2092ZM68.9892 34.744H80.8692V38.56H68.9892V34.744ZM63.2652 43.06H86.5572V30.244H63.2652V43.06ZM81.0492 9.652V29.02H86.5572V9.652H81.0492Z" fill="#FC7272"/>
</svg>
